<svg xmlns="http://www.w3.org/2000/svg" width="73.17" height="67.611" viewBox="0 0 73.17 67.611">
  <g id="Group_600" data-name="Group 600" transform="translate(3422 9064)">
    <path id="Path_901" data-name="Path 901" d="M-.008-4.5A4.936,4.936,0,0,0,4.632.7c.1.005.19.008.283.008A4.93,4.93,0,0,0,9.832-3.942a4.932,4.932,0,0,0-4.64-5.2A4.928,4.928,0,0,0-.008-4.5" transform="translate(-3401.941 -9025.949)" fill="#f8f8f5"/>
    <path id="Path_902" data-name="Path 902" d="M-1.629,0a1.591,1.591,0,0,0-1.68,1.5,1.591,1.591,0,0,0,1.5,1.681,1.6,1.6,0,0,0,1.682-1.5A1.593,1.593,0,0,0-1.629,0" transform="translate(-3418.688 -9031.706)" fill="#f8f8f5"/>
    <path id="Path_903" data-name="Path 903" d="M-2.237-2.92a1.594,1.594,0,0,0,.706-2.139,1.594,1.594,0,0,0-2.14-.705,1.593,1.593,0,0,0-.705,2.138,1.593,1.593,0,0,0,2.139.706" transform="translate(-3400.025 -9056.119)" fill="#f8f8f5"/>
    <path id="Path_904" data-name="Path 904" d="M-3.456-4.512a2.46,2.46,0,0,0,1.091-3.3A2.462,2.462,0,0,0-5.672-8.908,2.461,2.461,0,0,0-6.762-5.6a2.46,2.46,0,0,0,3.305,1.09" transform="translate(-3393.807 -9045.81)" fill="#f8f8f5"/>
    <path id="Path_905" data-name="Path 905" d="M-.887-3.6a2.027,2.027,0,0,0,2.808-.584,2.027,2.027,0,0,0-.584-2.806A2.027,2.027,0,0,0-1.47-6.41,2.027,2.027,0,0,0-.887-3.6" transform="translate(-3413.196 -9040.725)" fill="#f8f8f5"/>
    <path id="Path_906" data-name="Path 906" d="M-2.519,0a2.463,2.463,0,0,0-2.6,2.317A2.464,2.464,0,0,0-2.8,4.912,2.463,2.463,0,0,0-.2,2.593,2.462,2.462,0,0,0-2.519,0" transform="translate(-3408.569 -9032.592)" fill="#f8f8f5"/>
    <path id="Path_907" data-name="Path 907" d="M-1.079-.211a2.027,2.027,0,0,0-.9,2.723,2.027,2.027,0,0,0,2.722.9,2.028,2.028,0,0,0,.9-2.723,2.027,2.027,0,0,0-2.723-.9" transform="translate(-3412.734 -9015.845)" fill="#f8f8f5"/>
    <path id="Path_908" data-name="Path 908" d="M-1.267-5.149a2.894,2.894,0,0,0,4.01-.834,2.894,2.894,0,0,0-.834-4.008A2.894,2.894,0,0,0-2.1-9.159a2.9,2.9,0,0,0,.833,4.01" transform="translate(-3402.985 -9032.532)" fill="#f8f8f5"/>
    <path id="Path_909" data-name="Path 909" d="M-1.076-4.378a2.461,2.461,0,0,0,3.408-.709,2.461,2.461,0,0,0-.708-3.408,2.461,2.461,0,0,0-3.409.709,2.462,2.462,0,0,0,.708,3.409" transform="translate(-3372.833 -9046.141)" fill="#f8f8f5"/>
    <path id="Path_910" data-name="Path 910" d="M-.7-2.833a1.593,1.593,0,0,0,2.206-.458A1.594,1.594,0,0,0,1.049-5.5a1.594,1.594,0,0,0-2.206.458A1.593,1.593,0,0,0-.7-2.833" transform="translate(-3368.162 -9056.374)" fill="#f8f8f5"/>
    <path id="Path_911" data-name="Path 911" d="M-5.042-.008a4.928,4.928,0,0,0-5.2,4.639A4.934,4.934,0,0,0-5.6,9.831c.095.005.19.008.283.008A4.927,4.927,0,0,0-.4,5.191,4.89,4.89,0,0,0-1.647,1.631a4.884,4.884,0,0,0-3.4-1.639" transform="translate(-3368.48 -9035.132)" fill="#f8f8f5"/>
    <path id="Path_912" data-name="Path 912" d="M-.51-6.919a4.9,4.9,0,0,0,4.4,2.711,4.948,4.948,0,0,0,2.213-.528A4.933,4.933,0,0,0,8.29-11.354a4.9,4.9,0,0,0-4.4-2.711,4.96,4.96,0,0,0-2.213.527A4.935,4.935,0,0,0-.51-6.919" transform="translate(-3395.135 -9031.103)" fill="#f8f8f5"/>
    <path id="Path_913" data-name="Path 913" d="M-2.847-3.717a2.029,2.029,0,0,0,.9-2.723,2.027,2.027,0,0,0-2.723-.9,2.026,2.026,0,0,0-.9,2.723,2.029,2.029,0,0,0,2.723.9" transform="translate(-3354.171 -9040.616)" fill="#f8f8f5"/>
    <path id="Path_914" data-name="Path 914" d="M-1.543-.3A2.9,2.9,0,0,0-2.827,3.588a2.9,2.9,0,0,0,3.89,1.283A2.9,2.9,0,0,0,2.346.981,2.9,2.9,0,0,0-1.543-.3" transform="translate(-3367.972 -9042.464)" fill="#f8f8f5"/>
    <path id="Path_915" data-name="Path 915" d="M-1.852-3.923A2.028,2.028,0,0,0,.288-5.832,2.028,2.028,0,0,0-1.622-7.971,2.028,2.028,0,0,0-3.761-6.062,2.027,2.027,0,0,0-1.852-3.923" transform="translate(-3383.749 -9056.025)" fill="#f8f8f5"/>
    <path id="Path_916" data-name="Path 916" d="M-2.645-5.6A2.9,2.9,0,0,0,.411-8.332a2.9,2.9,0,0,0-2.728-3.057A2.9,2.9,0,0,0-5.373-8.661,2.9,2.9,0,0,0-2.645-5.6" transform="translate(-3382.978 -9041.589)" fill="#f8f8f5"/>
    <path id="Path_917" data-name="Path 917" d="M-4.066-5.309A2.9,2.9,0,0,0-2.781-9.2a2.9,2.9,0,0,0-3.89-1.282A2.9,2.9,0,0,0-7.954-6.592,2.9,2.9,0,0,0-4.066-5.309" transform="translate(-3397.251 -9012.316)" fill="#f8f8f5"/>
    <path id="Path_918" data-name="Path 918" d="M-.78-2.155A4.933,4.933,0,0,0,.637,4.667a4.908,4.908,0,0,0,2.7.808A4.918,4.918,0,0,0,7.461,3.25,4.933,4.933,0,0,0,6.042-3.573a4.906,4.906,0,0,0-2.7-.808A4.917,4.917,0,0,0-.78-2.155" transform="translate(-3382.971 -9040.813)" fill="#f8f8f5"/>
    <path id="Path_919" data-name="Path 919" d="M-9.034-2.625a4.905,4.905,0,0,0-4.4-2.712,4.932,4.932,0,0,0-2.215.528,4.891,4.891,0,0,0-2.461,2.857,4.887,4.887,0,0,0,.279,3.761,4.905,4.905,0,0,0,4.4,2.711,4.947,4.947,0,0,0,2.216-.528A4.933,4.933,0,0,0-9.034-2.625" transform="translate(-3366.152 -9019.742)" fill="#f8f8f5"/>
    <path id="Path_920" data-name="Path 920" d="M-4.342-.459a2.9,2.9,0,0,0-4.01.834,2.9,2.9,0,0,0,.834,4.01,2.9,2.9,0,0,0,4.01-.834,2.894,2.894,0,0,0-.834-4.01" transform="translate(-3362.239 -9022.251)" fill="#f8f8f5"/>
    <path id="Path_921" data-name="Path 921" d="M-4.764-2.52a2.462,2.462,0,0,0-2.319-2.6A2.462,2.462,0,0,0-9.68-2.8,2.461,2.461,0,0,0-7.362-.2a2.462,2.462,0,0,0,2.6-2.318" transform="translate(-3352.383 -9027.592)" fill="#f8f8f5"/>
    <path id="Path_922" data-name="Path 922" d="M-1.631,0A1.594,1.594,0,0,0-3.313,1.5a1.593,1.593,0,0,0,1.5,1.681,1.593,1.593,0,0,0,1.681-1.5A1.592,1.592,0,0,0-1.631,0" transform="translate(-3348.701 -9031.86)" fill="#f8f8f5"/>
    <path id="Path_923" data-name="Path 923" d="M-3.04-.322A2.027,2.027,0,0,0-5.847.262a2.027,2.027,0,0,0,.584,2.807,2.028,2.028,0,0,0,2.808-.584A2.028,2.028,0,0,0-3.04-.322" transform="translate(-3353.709 -9015.74)" fill="#f8f8f5"/>
    <path id="Path_924" data-name="Path 924" d="M-2.388-.253A1.592,1.592,0,0,0-4.594.205a1.593,1.593,0,0,0,.458,2.206,1.592,1.592,0,0,0,2.2-.459,1.592,1.592,0,0,0-.458-2.2" transform="translate(-3399.583 -9000.931)" fill="#f8f8f5"/>
    <path id="Path_925" data-name="Path 925" d="M-.848-.165a1.592,1.592,0,0,0-.7,2.139,1.593,1.593,0,0,0,2.139.7A1.593,1.593,0,0,0,1.292.54,1.594,1.594,0,0,0-.848-.165" transform="translate(-3367.722 -9001.186)" fill="#f8f8f5"/>
    <path id="Path_926" data-name="Path 926" d="M-8.762-7.387a4.893,4.893,0,0,0,.7-3.7,4.9,4.9,0,0,0-2.122-3.117,4.915,4.915,0,0,0-2.7-.808A4.915,4.915,0,0,0-17-12.791a4.892,4.892,0,0,0-.7,3.7,4.894,4.894,0,0,0,2.122,3.117,4.908,4.908,0,0,0,2.7.807A4.916,4.916,0,0,0-8.762-7.387" transform="translate(-3378.317 -9010.036)" fill="#f8f8f5"/>
    <path id="Path_927" data-name="Path 927" d="M-3.691-.391A2.461,2.461,0,0,0-7.1.317a2.462,2.462,0,0,0,.708,3.409,2.463,2.463,0,0,0,3.409-.709A2.462,2.462,0,0,0-3.691-.391" transform="translate(-3393.231 -9009.481)" fill="#f8f8f5"/>
    <path id="Path_928" data-name="Path 928" d="M-2.075,0A2.028,2.028,0,0,0-4.214,1.906a2.028,2.028,0,0,0,1.909,2.14A2.028,2.028,0,0,0-.166,2.136,2.028,2.028,0,0,0-2.075,0" transform="translate(-3383.364 -9000.438)" fill="#f8f8f5"/>
    <path id="Path_929" data-name="Path 929" d="M-2.963,0A2.9,2.9,0,0,0-6.019,2.723,2.9,2.9,0,0,0-3.292,5.779,2.9,2.9,0,0,0-.236,3.052,2.9,2.9,0,0,0-2.963,0" transform="translate(-3382.453 -9013.191)" fill="#f8f8f5"/>
    <path id="Path_930" data-name="Path 930" d="M-1.31-.255A2.462,2.462,0,0,0-2.4,3.051,2.46,2.46,0,0,0,.906,4.141,2.461,2.461,0,0,0,2,.835,2.463,2.463,0,0,0-1.31-.255" transform="translate(-3372.259 -9009.813)" fill="#f8f8f5"/>
  </g>
</svg>